  0
SECTION
  2
HEADER
  9
$ACADVER
  1
AC1009
  9
$EXTMIN
 10
0.0
 20
0.0
 30
0.0
  9
$EXTMAX
 10
1000.0
 20
1000.0
 30
0.0
  9
$FILLMODE
 70
 0
  9
$SPLFRAME
 70
 1
  0
ENDSEC
  0
SECTION
  2
TABLES
  0
TABLE
  2
LAYER
 70
1
  0
LAYER
  2
0
 70
     0
 62
     7
  6
CONTINUOUS
  0
ENDTAB
  0
ENDSEC
  0
SECTION
  2
ENTITIES
  0
POLYLINE
  8
0
 62
     7
 66
     1
 10
0
 20
0
 30
0.0
 70
     1
 40
0
 41
0
  0
VERTEX
  8
0
 10
1.33919
 20
0.345649
 30
0.0
 40
0
 41
0
  0
VERTEX
  8
0
 10
1.33919
 20
0.119575
 30
0.0
 40
0
 41
0
  0
VERTEX
  8
0
 10
1.33897
 20
0.119575
 30
0.0
 40
0
 41
0
  0
VERTEX
  8
0
 10
1.24197
 20
0.230089
 30
0.0
 40
0
 41
0
  0
VERTEX
  8
0
 10
1.11605
 20
0.230089
 30
0.0
 40
0
 41
0
  0
VERTEX
  8
0
 10
1.11621
 20
0.345649
 30
0.0
 40
0
 41
0
  0
VERTEX
  8
0
 10
1.00098
 20
0.345649
 30
0.0
 40
0
 41
0
  0
VERTEX
  8
0
 10
1.00098
 20
0.119466
 30
0.0
 40
0
 41
0
  0
VERTEX
  8
0
 10
1.11502
 20
0.00179036
 30
0.0
 40
0
 41
0
  0
VERTEX
  8
0
 10
1.11502
 20
0.00103082
 30
0.0
 40
0
 41
0
  0
VERTEX
  8
0
 10
1.29286
 20
0.00103082
 30
0.0
 40
0
 41
0
  0
VERTEX
  8
0
 10
1.33919
 20
0.0494792
 30
0.0
 40
0
 41
0
  0
VERTEX
  8
0
 10
1.33919
 20
0.00103082
 30
0.0
 40
0
 41
0
  0
VERTEX
  8
0
 10
1.45535
 20
0.00103082
 30
0.0
 40
0
 41
0
  0
VERTEX
  8
0
 10
1.45535
 20
0.345649
 30
0.0
 40
0
 41
0
  0
VERTEX
  8
0
 10
1.33919
 20
0.345649
 30
0.0
 40
0
 41
0
  0
SEQEND
 8
0
  0
POLYLINE
  8
0
 62
     7
 66
     1
 10
0
 20
0
 30
0.0
 70
     1
 40
0
 41
0
  0
VERTEX
  8
0
 10
1.11589
 20
0.119575
 30
0.0
 40
0
 41
0
  0
VERTEX
  8
0
 10
1.11599
 20
0.202311
 30
0.0
 40
0
 41
0
  0
VERTEX
  8
0
 10
1.18869
 20
0.119575
 30
0.0
 40
0
 41
0
  0
VERTEX
  8
0
 10
1.11589
 20
0.119575
 30
0.0
 40
0
 41
0
  0
SEQEND
 8
0
  0
POLYLINE
  8
0
 62
     7
 66
     1
 10
0
 20
0
 30
0.0
 70
     1
 40
0
 41
0
  0
VERTEX
  8
0
 10
0.718858
 20
0.345649
 30
0.0
 40
0
 41
0
  0
VERTEX
  8
0
 10
0.488661
 20
0.345649
 30
0.0
 40
0
 41
0
  0
VERTEX
  8
0
 10
0.488281
 20
0.345324
 30
0.0
 40
0
 41
0
  0
VERTEX
  8
0
 10
0.488281
 20
0.345649
 30
0.0
 40
0
 41
0
  0
VERTEX
  8
0
 10
0.369521
 20
0.230089
 30
0.0
 40
0
 41
0
  0
VERTEX
  8
0
 10
0.369521
 20
0.00103082
 30
0.0
 40
0
 41
0
  0
VERTEX
  8
0
 10
0.488281
 20
0.00103082
 30
0.0
 40
0
 41
0
  0
VERTEX
  8
0
 10
0.488281
 20
0.230089
 30
0.0
 40
0
 41
0
  0
VERTEX
  8
0
 10
0.603787
 20
0.230089
 30
0.0
 40
0
 41
0
  0
VERTEX
  8
0
 10
0.718858
 20
0.345649
 30
0.0
 40
0
 41
0
  0
SEQEND
 8
0
  0
POLYLINE
  8
0
 62
     7
 66
     1
 10
0
 20
0
 30
0.0
 70
     1
 40
0
 41
0
  0
VERTEX
  8
0
 10
0.313422
 20
0.345649
 30
0.0
 40
0
 41
0
  0
VERTEX
  8
0
 10
0.11849
 20
0.159831
 30
0.0
 40
0
 41
0
  0
VERTEX
  8
0
 10
0.11849
 20
0.345649
 30
0.0
 40
0
 41
0
  0
VERTEX
  8
0
 10
0.000651042
 20
0.345649
 30
0.0
 40
0
 41
0
  0
VERTEX
  8
0
 10
0.000651042
 20
0.00103082
 30
0.0
 40
0
 41
0
  0
VERTEX
  8
0
 10
0.119412
 20
0.00103082
 30
0.0
 40
0
 41
0
  0
VERTEX
  8
0
 10
0.230957
 20
0.111871
 30
0.0
 40
0
 41
0
  0
VERTEX
  8
0
 10
0.230686
 20
0.00103082
 30
0.0
 40
0
 41
0
  0
VERTEX
  8
0
 10
0.349447
 20
0.00103082
 30
0.0
 40
0
 41
0
  0
VERTEX
  8
0
 10
0.349447
 20
0.345649
 30
0.0
 40
0
 41
0
  0
VERTEX
  8
0
 10
0.313422
 20
0.345649
 30
0.0
 40
0
 41
0
  0
SEQEND
 8
0
  0
POLYLINE
  8
0
 62
     7
 66
     1
 10
0
 20
0
 30
0.0
 70
     1
 40
0
 41
0
  0
VERTEX
  8
0
 10
0.747775
 20
0.345649
 30
0.0
 40
0
 41
0
  0
VERTEX
  8
0
 10
0.747775
 20
0.34554
 30
0.0
 40
0
 41
0
  0
VERTEX
  8
0
 10
0.631131
 20
0.230089
 30
0.0
 40
0
 41
0
  0
VERTEX
  8
0
 10
0.631131
 20
0.00103082
 30
0.0
 40
0
 41
0
  0
VERTEX
  8
0
 10
0.747993
 20
0.00103082
 30
0.0
 40
0
 41
0
  0
VERTEX
  8
0
 10
0.747993
 20
0.118218
 30
0.0
 40
0
 41
0
  0
VERTEX
  8
0
 10
0.869521
 20
0.118761
 30
0.0
 40
0
 41
0
  0
VERTEX
  8
0
 10
0.978624
 20
0.230089
 30
0.0
 40
0
 41
0
  0
VERTEX
  8
0
 10
0.978624
 20
0.345649
 30
0.0
 40
0
 41
0
  0
VERTEX
  8
0
 10
0.747775
 20
0.345649
 30
0.0
 40
0
 41
0
  0
SEQEND
 8
0
  0
POLYLINE
  8
0
 62
     7
 66
     1
 10
0
 20
0
 30
0.0
 70
     1
 40
0
 41
0
  0
VERTEX
  8
0
 10
0.747993
 20
0.230089
 30
0.0
 40
0
 41
0
  0
VERTEX
  8
0
 10
0.826932
 20
0.230089
 30
0.0
 40
0
 41
0
  0
VERTEX
  8
0
 10
0.747993
 20
0.149035
 30
0.0
 40
0
 41
0
  0
VERTEX
  8
0
 10
0.747993
 20
0.230089
 30
0.0
 40
0
 41
0
  0
SEQEND
 8
0
  0
POLYLINE
  8
0
 62
     7
 66
     1
 10
0
 20
0
 30
0.0
 70
     1
 40
0
 41
0
  0
VERTEX
  8
0
 10
0.664497
 20
0.633029
 30
0.0
 40
0
 41
0
  0
VERTEX
  8
0
 10
0.744032
 20
0.633029
 30
0.0
 40
0
 41
0
  0
VERTEX
  8
0
 10
0.744032
 20
0.605578
 30
0.0
 40
0
 41
0
  0
VERTEX
  8
0
 10
0.664497
 20
0.605578
 30
0.0
 40
0
 41
0
  0
VERTEX
  8
0
 10
0.664497
 20
0.633029
 30
0.0
 40
0
 41
0
  0
SEQEND
 8
0
  0
POLYLINE
  8
0
 62
     7
 66
     1
 10
0
 20
0
 30
0.0
 70
     1
 40
0
 41
0
  0
VERTEX
  8
0
 10
0
 20
0.520617
 30
0.0
 40
0
 41
0
  0
VERTEX
  8
0
 10
0.0126411
 20
0.553549
 30
0.0
 40
0
 41
0
  0
VERTEX
  8
0
 10
0.0447592
 20
0.56429
 30
0.0
 40
0
 41
0
  0
VERTEX
  8
0
 10
0.0768772
 20
0.553549
 30
0.0
 40
0
 41
0
  0
VERTEX
  8
0
 10
0.0895725
 20
0.520617
 30
0.0
 40
0
 41
0
  0
VERTEX
  8
0
 10
0.0895725
 20
0.506619
 30
0.0
 40
0
 41
0
  0
VERTEX
  8
0
 10
0.054796
 20
0.506619
 30
0.0
 40
0
 41
0
  0
VERTEX
  8
0
 10
0.054796
 20
0.523654
 30
0.0
 40
0
 41
0
  0
VERTEX
  8
0
 10
0.0534939
 20
0.532497
 30
0.0
 40
0
 41
0
  0
VERTEX
  8
0
 10
0.0447592
 20
0.537435
 30
0.0
 40
0
 41
0
  0
VERTEX
  8
0
 10
0.0360243
 20
0.532497
 30
0.0
 40
0
 41
0
  0
VERTEX
  8
0
 10
0.0347765
 20
0.523654
 30
0.0
 40
0
 41
0
  0
VERTEX
  8
0
 10
0.0347765
 20
0.449001
 30
0.0
 40
0
 41
0
  0
VERTEX
  8
0
 10
0.0360243
 20
0.440701
 30
0.0
 40
0
 41
0
  0
VERTEX
  8
0
 10
0.0447592
 20
0.435275
 30
0.0
 40
0
 41
0
  0
VERTEX
  8
0
 10
0.0534939
 20
0.440701
 30
0.0
 40
0
 41
0
  0
VERTEX
  8
0
 10
0.054796
 20
0.449001
 30
0.0
 40
0
 41
0
  0
VERTEX
  8
0
 10
0.054796
 20
0.471138
 30
0.0
 40
0
 41
0
  0
VERTEX
  8
0
 10
0.0895725
 20
0.471138
 30
0.0
 40
0
 41
0
  0
VERTEX
  8
0
 10
0.0895725
 20
0.45204
 30
0.0
 40
0
 41
0
  0
VERTEX
  8
0
 10
0.0774739
 20
0.420139
 30
0.0
 40
0
 41
0
  0
VERTEX
  8
0
 10
0.0447592
 20
0.408365
 30
0.0
 40
0
 41
0
  0
VERTEX
  8
0
 10
0.0120443
 20
0.420139
 30
0.0
 40
0
 41
0
  0
VERTEX
  8
0
 10
0
 20
0.45204
 30
0.0
 40
0
 41
0
  0
VERTEX
  8
0
 10
0
 20
0.520617
 30
0.0
 40
0
 41
0
  0
SEQEND
 8
0
  0
POLYLINE
  8
0
 62
     7
 66
     1
 10
0
 20
0
 30
0.0
 70
     1
 40
0
 41
0
  0
VERTEX
  8
0
 10
0.161783
 20
0.561794
 30
0.0
 40
0
 41
0
  0
VERTEX
  8
0
 10
0.23904
 20
0.561794
 30
0.0
 40
0
 41
0
  0
VERTEX
  8
0
 10
0.23904
 20
0.532715
 30
0.0
 40
0
 41
0
  0
VERTEX
  8
0
 10
0.19656
 20
0.532715
 30
0.0
 40
0
 41
0
  0
VERTEX
  8
0
 10
0.19656
 20
0.502658
 30
0.0
 40
0
 41
0
  0
VERTEX
  8
0
 10
0.233778
 20
0.502658
 30
0.0
 40
0
 41
0
  0
VERTEX
  8
0
 10
0.233778
 20
0.473579
 30
0.0
 40
0
 41
0
  0
VERTEX
  8
0
 10
0.19656
 20
0.473579
 30
0.0
 40
0
 41
0
  0
VERTEX
  8
0
 10
0.19656
 20
0.439942
 30
0.0
 40
0
 41
0
  0
VERTEX
  8
0
 10
0.240776
 20
0.439942
 30
0.0
 40
0
 41
0
  0
VERTEX
  8
0
 10
0.240776
 20
0.410807
 30
0.0
 40
0
 41
0
  0
VERTEX
  8
0
 10
0.161783
 20
0.410807
 30
0.0
 40
0
 41
0
  0
VERTEX
  8
0
 10
0.161783
 20
0.561794
 30
0.0
 40
0
 41
0
  0
SEQEND
 8
0
  0
POLYLINE
  8
0
 62
     7
 66
     1
 10
0
 20
0
 30
0.0
 70
     1
 40
0
 41
0
  0
VERTEX
  8
0
 10
0.316786
 20
0.561794
 30
0.0
 40
0
 41
0
  0
VERTEX
  8
0
 10
0.354004
 20
0.561794
 30
0.0
 40
0
 41
0
  0
VERTEX
  8
0
 10
0.378472
 20
0.560221
 30
0.0
 40
0
 41
0
  0
VERTEX
  8
0
 10
0.395182
 20
0.553711
 30
0.0
 40
0
 41
0
  0
VERTEX
  8
0
 10
0.404731
 20
0.539931
 30
0.0
 40
0
 41
0
  0
VERTEX
  8
0
 10
0.407824
 20
0.516331
 30
0.0
 40
0
 41
0
  0
VERTEX
  8
0
 10
0.40625
 20
0.499729
 30
0.0
 40
0
 41
0
  0
VERTEX
  8
0
 10
0.400553
 20
0.485081
 30
0.0
 40
0
 41
0
  0
VERTEX
  8
0
 10
0.388889
 20
0.474664
 30
0.0
 40
0
 41
0
  0
VERTEX
  8
0
 10
0.369683
 20
0.470703
 30
0.0
 40
0
 41
0
  0
VERTEX
  8
0
 10
0.351508
 20
0.470703
 30
0.0
 40
0
 41
0
  0
VERTEX
  8
0
 10
0.351508
 20
0.410807
 30
0.0
 40
0
 41
0
  0
VERTEX
  8
0
 10
0.316786
 20
0.410807
 30
0.0
 40
0
 41
0
  0
VERTEX
  8
0
 10
0.316786
 20
0.561794
 30
0.0
 40
0
 41
0
  0
SEQEND
 8
0
  0
POLYLINE
  8
0
 62
     7
 66
     1
 10
0
 20
0
 30
0.0
 70
     1
 40
0
 41
0
  0
VERTEX
  8
0
 10
0.360243
 20
0.497558
 30
0.0
 40
0
 41
0
  0
VERTEX
  8
0
 10
0.370008
 20
0.502007
 30
0.0
 40
0
 41
0
  0
VERTEX
  8
0
 10
0.373047
 20
0.516331
 30
0.0
 40
0
 41
0
  0
VERTEX
  8
0
 10
0.370008
 20
0.530653
 30
0.0
 40
0
 41
0
  0
VERTEX
  8
0
 10
0.360243
 20
0.534993
 30
0.0
 40
0
 41
0
  0
VERTEX
  8
0
 10
0.351508
 20
0.534993
 30
0.0
 40
0
 41
0
  0
VERTEX
  8
0
 10
0.351508
 20
0.497558
 30
0.0
 40
0
 41
0
  0
VERTEX
  8
0
 10
0.360243
 20
0.497558
 30
0.0
 40
0
 41
0
  0
SEQEND
 8
0
  0
POLYLINE
  8
0
 62
     7
 66
     1
 10
0
 20
0
 30
0.0
 70
     1
 40
0
 41
0
  0
VERTEX
  8
0
 10
0.489854
 20
0.561794
 30
0.0
 40
0
 41
0
  0
VERTEX
  8
0
 10
0.524631
 20
0.561794
 30
0.0
 40
0
 41
0
  0
VERTEX
  8
0
 10
0.524631
 20
0.504719
 30
0.0
 40
0
 41
0
  0
VERTEX
  8
0
 10
0.537869
 20
0.504719
 30
0.0
 40
0
 41
0
  0
VERTEX
  8
0
 10
0.569661
 20
0.493435
 30
0.0
 40
0
 41
0
  0
VERTEX
  8
0
 10
0.579428
 20
0.45714
 30
0.0
 40
0
 41
0
  0
VERTEX
  8
0
 10
0.577365
 20
0.437771
 30
0.0
 40
0
 41
0
  0
VERTEX
  8
0
 10
0.570421
 20
0.423232
 30
0.0
 40
0
 41
0
  0
VERTEX
  8
0
 10
0.557129
 20
0.414008
 30
0.0
 40
0
 41
0
  0
VERTEX
  8
0
 10
0.53635
 20
0.410807
 30
0.0
 40
0
 41
0
  0
VERTEX
  8
0
 10
0.489854
 20
0.410807
 30
0.0
 40
0
 41
0
  0
VERTEX
  8
0
 10
0.489854
 20
0.561794
 30
0.0
 40
0
 41
0
  0
SEQEND
 8
0
  0
POLYLINE
  8
0
 62
     7
 66
     1
 10
0
 20
0
 30
0.0
 70
     1
 40
0
 41
0
  0
VERTEX
  8
0
 10
0.531412
 20
0.438803
 30
0.0
 40
0
 41
0
  0
VERTEX
  8
0
 10
0.541396
 20
0.442925
 30
0.0
 40
0
 41
0
  0
VERTEX
  8
0
 10
0.54465
 20
0.4579
 30
0.0
 40
0
 41
0
  0
VERTEX
  8
0
 10
0.541396
 20
0.472656
 30
0.0
 40
0
 41
0
  0
VERTEX
  8
0
 10
0.531412
 20
0.476779
 30
0.0
 40
0
 41
0
  0
VERTEX
  8
0
 10
0.524631
 20
0.476779
 30
0.0
 40
0
 41
0
  0
VERTEX
  8
0
 10
0.524631
 20
0.438803
 30
0.0
 40
0
 41
0
  0
VERTEX
  8
0
 10
0.531412
 20
0.438803
 30
0.0
 40
0
 41
0
  0
SEQEND
 8
0
  0
POLYLINE
  8
0
 62
     7
 66
     1
 10
0
 20
0
 30
0.0
 70
     1
 40
0
 41
0
  0
VERTEX
  8
0
 10
0.664225
 20
0.561794
 30
0.0
 40
0
 41
0
  0
VERTEX
  8
0
 10
0.741536
 20
0.561794
 30
0.0
 40
0
 41
0
  0
VERTEX
  8
0
 10
0.741536
 20
0.532715
 30
0.0
 40
0
 41
0
  0
VERTEX
  8
0
 10
0.699001
 20
0.532715
 30
0.0
 40
0
 41
0
  0
VERTEX
  8
0
 10
0.699001
 20
0.502658
 30
0.0
 40
0
 41
0
  0
VERTEX
  8
0
 10
0.736219
 20
0.502658
 30
0.0
 40
0
 41
0
  0
VERTEX
  8
0
 10
0.736219
 20
0.473579
 30
0.0
 40
0
 41
0
  0
VERTEX
  8
0
 10
0.699001
 20
0.473579
 30
0.0
 40
0
 41
0
  0
VERTEX
  8
0
 10
0.699001
 20
0.439942
 30
0.0
 40
0
 41
0
  0
VERTEX
  8
0
 10
0.743218
 20
0.439942
 30
0.0
 40
0
 41
0
  0
VERTEX
  8
0
 10
0.743218
 20
0.410807
 30
0.0
 40
0
 41
0
  0
VERTEX
  8
0
 10
0.664225
 20
0.410807
 30
0.0
 40
0
 41
0
  0
VERTEX
  8
0
 10
0.664225
 20
0.561794
 30
0.0
 40
0
 41
0
  0
SEQEND
 8
0
  0
POLYLINE
  8
0
 62
     7
 66
     1
 10
0
 20
0
 30
0.0
 70
     1
 40
0
 41
0
  0
VERTEX
  8
0
 10
0.827908
 20
0.520019
 30
0.0
 40
0
 41
0
  0
VERTEX
  8
0
 10
0.839899
 20
0.553386
 30
0.0
 40
0
 41
0
  0
VERTEX
  8
0
 10
0.874186
 20
0.56429
 30
0.0
 40
0
 41
0
  0
VERTEX
  8
0
 10
0.905111
 20
0.553874
 30
0.0
 40
0
 41
0
  0
VERTEX
  8
0
 10
0.916124
 20
0.525011
 30
0.0
 40
0
 41
0
  0
VERTEX
  8
0
 10
0.908854
 20
0.500433
 30
0.0
 40
0
 41
0
  0
VERTEX
  8
0
 10
0.892144
 20
0.491103
 30
0.0
 40
0
 41
0
  0
VERTEX
  8
0
 10
0.892144
 20
0.490776
 30
0.0
 40
0
 41
0
  0
VERTEX
  8
0
 10
0.909776
 20
0.481228
 30
0.0
 40
0
 41
0
  0
VERTEX
  8
0
 10
0.918024
 20
0.452746
 30
0.0
 40
0
 41
0
  0
VERTEX
  8
0
 10
0.906521
 20
0.42041
 30
0.0
 40
0
 41
0
  0
VERTEX
  8
0
 10
0.873426
 20
0.408365
 30
0.0
 40
0
 41
0
  0
VERTEX
  8
0
 10
0.839356
 20
0.418186
 30
0.0
 40
0
 41
0
  0
VERTEX
  8
0
 10
0.826768
 20
0.450521
 30
0.0
 40
0
 41
0
  0
VERTEX
  8
0
 10
0.826768
 20
0.463921
 30
0.0
 40
0
 41
0
  0
VERTEX
  8
0
 10
0.860406
 20
0.463921
 30
0.0
 40
0
 41
0
  0
VERTEX
  8
0
 10
0.860406
 20
0.455946
 30
0.0
 40
0
 41
0
  0
VERTEX
  8
0
 10
0.862304
 20
0.441351
 30
0.0
 40
0
 41
0
  0
VERTEX
  8
0
 10
0.871907
 20
0.435275
 30
0.0
 40
0
 41
0
  0
VERTEX
  8
0
 10
0.881239
 20
0.441297
 30
0.0
 40
0
 41
0
  0
VERTEX
  8
0
 10
0.883247
 20
0.455404
 30
0.0
 40
0
 41
0
  0
VERTEX
  8
0
 10
0.880262
 20
0.468425
 30
0.0
 40
0
 41
0
  0
VERTEX
  8
0
 10
0.869846
 20
0.473742
 30
0.0
 40
0
 41
0
  0
VERTEX
  8
0
 10
0.86301
 20
0.473742
 30
0.0
 40
0
 41
0
  0
VERTEX
  8
0
 10
0.86301
 20
0.501682
 30
0.0
 40
0
 41
0
  0
VERTEX
  8
0
 10
0.869467
 20
0.501682
 30
0.0
 40
0
 41
0
  0
VERTEX
  8
0
 10
0.879992
 20
0.50689
 30
0.0
 40
0
 41
0
  0
VERTEX
  8
0
 10
0.882488
 20
0.521539
 30
0.0
 40
0
 41
0
  0
VERTEX
  8
0
 10
0.880154
 20
0.533419
 30
0.0
 40
0
 41
0
  0
VERTEX
  8
0
 10
0.872125
 20
0.537435
 30
0.0
 40
0
 41
0
  0
VERTEX
  8
0
 10
0.863553
 20
0.532932
 30
0.0
 40
0
 41
0
  0
VERTEX
  8
0
 10
0.861544
 20
0.521539
 30
0.0
 40
0
 41
0
  0
VERTEX
  8
0
 10
0.861544
 20
0.510471
 30
0.0
 40
0
 41
0
  0
VERTEX
  8
0
 10
0.827908
 20
0.510471
 30
0.0
 40
0
 41
0
  0
VERTEX
  8
0
 10
0.827908
 20
0.520019
 30
0.0
 40
0
 41
0
  0
SEQEND
 8
0
  0
POLYLINE
  8
0
 62
     7
 66
     1
 10
0
 20
0
 30
0.0
 70
     1
 40
0
 41
0
  0
VERTEX
  8
0
 10
1.00363
 20
0.561794
 30
0.0
 40
0
 41
0
  0
VERTEX
  8
0
 10
1.03841
 20
0.561794
 30
0.0
 40
0
 41
0
  0
VERTEX
  8
0
 10
1.03841
 20
0.504719
 30
0.0
 40
0
 41
0
  0
VERTEX
  8
0
 10
1.05843
 20
0.504719
 30
0.0
 40
0
 41
0
  0
VERTEX
  8
0
 10
1.05843
 20
0.561794
 30
0.0
 40
0
 41
0
  0
VERTEX
  8
0
 10
1.09321
 20
0.561794
 30
0.0
 40
0
 41
0
  0
VERTEX
  8
0
 10
1.09321
 20
0.410807
 30
0.0
 40
0
 41
0
  0
VERTEX
  8
0
 10
1.05843
 20
0.410807
 30
0.0
 40
0
 41
0
  0
VERTEX
  8
0
 10
1.05843
 20
0.47564
 30
0.0
 40
0
 41
0
  0
VERTEX
  8
0
 10
1.03841
 20
0.47564
 30
0.0
 40
0
 41
0
  0
VERTEX
  8
0
 10
1.03841
 20
0.410807
 30
0.0
 40
0
 41
0
  0
VERTEX
  8
0
 10
1.00363
 20
0.410807
 30
0.0
 40
0
 41
0
  0
VERTEX
  8
0
 10
1.00363
 20
0.561794
 30
0.0
 40
0
 41
0
  0
SEQEND
 8
0
  0
POLYLINE
  8
0
 62
     7
 66
     1
 10
0
 20
0
 30
0.0
 70
     1
 40
0
 41
0
  0
VERTEX
  8
0
 10
1.16542
 20
0.561794
 30
0.0
 40
0
 41
0
  0
VERTEX
  8
0
 10
1.2002
 20
0.561794
 30
0.0
 40
0
 41
0
  0
VERTEX
  8
0
 10
1.2002
 20
0.504719
 30
0.0
 40
0
 41
0
  0
VERTEX
  8
0
 10
1.21343
 20
0.504719
 30
0.0
 40
0
 41
0
  0
VERTEX
  8
0
 10
1.24522
 20
0.493435
 30
0.0
 40
0
 41
0
  0
VERTEX
  8
0
 10
1.25499
 20
0.45714
 30
0.0
 40
0
 41
0
  0
VERTEX
  8
0
 10
1.25293
 20
0.437771
 30
0.0
 40
0
 41
0
  0
VERTEX
  8
0
 10
1.24593
 20
0.423232
 30
0.0
 40
0
 41
0
  0
VERTEX
  8
0
 10
1.23269
 20
0.414008
 30
0.0
 40
0
 41
0
  0
VERTEX
  8
0
 10
1.21186
 20
0.410807
 30
0.0
 40
0
 41
0
  0
VERTEX
  8
0
 10
1.16542
 20
0.410807
 30
0.0
 40
0
 41
0
  0
VERTEX
  8
0
 10
1.16542
 20
0.561794
 30
0.0
 40
0
 41
0
  0
SEQEND
 8
0
  0
POLYLINE
  8
0
 62
     7
 66
     1
 10
0
 20
0
 30
0.0
 70
     1
 40
0
 41
0
  0
VERTEX
  8
0
 10
1.20698
 20
0.438803
 30
0.0
 40
0
 41
0
  0
VERTEX
  8
0
 10
1.21696
 20
0.442925
 30
0.0
 40
0
 41
0
  0
VERTEX
  8
0
 10
1.22022
 20
0.4579
 30
0.0
 40
0
 41
0
  0
VERTEX
  8
0
 10
1.21696
 20
0.472656
 30
0.0
 40
0
 41
0
  0
VERTEX
  8
0
 10
1.20698
 20
0.476779
 30
0.0
 40
0
 41
0
  0
VERTEX
  8
0
 10
1.2002
 20
0.476779
 30
0.0
 40
0
 41
0
  0
VERTEX
  8
0
 10
1.2002
 20
0.438803
 30
0.0
 40
0
 41
0
  0
VERTEX
  8
0
 10
1.20698
 20
0.438803
 30
0.0
 40
0
 41
0
  0
SEQEND
 8
0
  0
POLYLINE
  8
0
 62
     7
 66
     1
 10
0
 20
0
 30
0.0
 70
     1
 40
0
 41
0
  0
VERTEX
  8
0
 10
1.26628
 20
0.561794
 30
0.0
 40
0
 41
0
  0
VERTEX
  8
0
 10
1.30105
 20
0.561794
 30
0.0
 40
0
 41
0
  0
VERTEX
  8
0
 10
1.30105
 20
0.410807
 30
0.0
 40
0
 41
0
  0
VERTEX
  8
0
 10
1.26628
 20
0.410807
 30
0.0
 40
0
 41
0
  0
VERTEX
  8
0
 10
1.26628
 20
0.561794
 30
0.0
 40
0
 41
0
  0
SEQEND
 8
0
  0
POLYLINE
  8
0
 62
     7
 66
     1
 10
0
 20
0
 30
0.0
 70
     1
 40
0
 41
0
  0
VERTEX
  8
0
 10
1.37706
 20
0.561794
 30
0.0
 40
0
 41
0
  0
VERTEX
  8
0
 10
1.45437
 20
0.561794
 30
0.0
 40
0
 41
0
  0
VERTEX
  8
0
 10
1.45437
 20
0.532715
 30
0.0
 40
0
 41
0
  0
VERTEX
  8
0
 10
1.41183
 20
0.532715
 30
0.0
 40
0
 41
0
  0
VERTEX
  8
0
 10
1.41183
 20
0.502658
 30
0.0
 40
0
 41
0
  0
VERTEX
  8
0
 10
1.44906
 20
0.502658
 30
0.0
 40
0
 41
0
  0
VERTEX
  8
0
 10
1.44906
 20
0.473579
 30
0.0
 40
0
 41
0
  0
VERTEX
  8
0
 10
1.41183
 20
0.473579
 30
0.0
 40
0
 41
0
  0
VERTEX
  8
0
 10
1.41183
 20
0.439942
 30
0.0
 40
0
 41
0
  0
VERTEX
  8
0
 10
1.45606
 20
0.439942
 30
0.0
 40
0
 41
0
  0
VERTEX
  8
0
 10
1.45606
 20
0.410807
 30
0.0
 40
0
 41
0
  0
VERTEX
  8
0
 10
1.37706
 20
0.410807
 30
0.0
 40
0
 41
0
  0
VERTEX
  8
0
 10
1.37706
 20
0.561794
 30
0.0
 40
0
 41
0
  0
SEQEND
 8
0
  0
ENDSEC
  0
EOF
